# xmcd CD database file
#
# Track frame offsets:
#	150
#	26376
#	48573
#	71490
#	102659
#	126545
#	155085
#	176484
#	201917
#	222429
#	247525
#	276074
#	299766
#
# Disc length: 4292 seconds
#
# Revision: 0
# Processed by: cddbd v1.5.1PL2 Copyright (c) Steve Scherf et al.
# Submitted via: CDex 1.51
#
DISCID=cc10c20d
DTITLE=Various Artist - Jazz Magazin Nr.42
DYEAR=2006
DGENRE=Jazz
TTITLE0=01 - CASSANDRA WILSON - Closer To You
TTITLE1=02 - ARKÈ STRING PROJECT - I Treni Che Vorrei
TTITLE2=03 - MICHAEL LÖSCH UNIT ELEVEN JAZZ ORCHESTRA - Hotel Anatol
TTITLE3=04 - MARIO PIACENTINI TRIO - Quando
TTITLE4=05 - GABIN DABIRÉ SEXTETT - Bembeya
TTITLE5=06 - RENÉ MARIE - Paris On Ponce
TTITLE6=07 - MATT JAZZ QUINTETT - Sharp Blues
TTITLE7=08 - RICK PECKHAM TRIO - Evidence
TTITLE8=09 - KIM HILL - Nutshell
TTITLE9=10 - NAJEE - Sidewayz
TTITLE10=11 - MAURIZIO CAMARDI - Quito
TTITLE11=12 - ISMAEL REINHARDT - Fly Me To The Moon
TTITLE12=13 ALDO ROMANO - Les Enfants S'ennuient Le Dimanche
EXTD=YEAR: 2006
EXTT0=
EXTT1=
EXTT2=
EXTT3=
EXTT4=
EXTT5=
EXTT6=
EXTT7=
EXTT8=
EXTT9=
EXTT10=
EXTT11=
EXTT12=
PLAYORDER=
